/* XPM */
static char * C:\Users\bretto\Documents\MeltTech_xpm[] = {
"32 32 916 2",
"  	c #EC9C14",
". 	c #D4990C",
"+ 	c #F6C11D",
"@ 	c #E9B405",
"# 	c #FACD06",
"$ 	c #FEDC02",
"% 	c #FFE411",
"& 	c #FEE017",
"* 	c #FACA0A",
"= 	c #FABE07",
"- 	c #F5B909",
"; 	c #BF7B0B",
"> 	c #AF5E03",
", 	c #F5B110",
"' 	c #FAAE05",
") 	c #F9B305",
"! 	c #FCCB02",
"~ 	c #FCD003",
"{ 	c #FBD601",
"] 	c #FAC80B",
"^ 	c #D57B02",
"/ 	c #D16405",
"( 	c #D56706",
"_ 	c #CC5901",
": 	c #F37F05",
"< 	c #FF9201",
"[ 	c #FD8301",
"} 	c #FF8001",
"| 	c #FE8E01",
"1 	c #FFA707",
"2 	c #FEC202",
"3 	c #FECF02",
"4 	c #E19314",
"5 	c #D19916",
"6 	c #F5C11B",
"7 	c #FCCB15",
"8 	c #FDCD07",
"9 	c #FDD502",
"0 	c #FEDD0A",
"a 	c #FCD60B",
"b 	c #FCCD07",
"c 	c #FFCC0D",
"d 	c #F8C50D",
"e 	c #C07E0B",
"f 	c #AB5903",
"g 	c #E2960C",
"h 	c #FCB604",
"i 	c #FFC603",
"j 	c #FDD201",
"k 	c #FDD002",
"l 	c #FCD702",
"m 	c #EFB606",
"n 	c #CA6C02",
"o 	c #CE6204",
"p 	c #DD6901",
"q 	c #ED7106",
"r 	c #F87C02",
"s 	c #FE9001",
"t 	c #FE8B03",
"u 	c #FD8500",
"v 	c #FD8D00",
"w 	c #FF9B02",
"x 	c #FEBA02",
"y 	c #FDCD01",
"z 	c #CC7B1A",
"A 	c #BF8923",
"B 	c #F6C726",
"C 	c #FBCA0F",
"D 	c #FDCE09",
"E 	c #FBD001",
"F 	c #FBD401",
"G 	c #FED707",
"H 	c #FFD70C",
"I 	c #FFD40D",
"J 	c #FED012",
"K 	c #C5840C",
"L 	c #B96903",
"M 	c #BC6905",
"N 	c #F0AF08",
"O 	c #FED305",
"P 	c #FCD901",
"Q 	c #FDD301",
"R 	c #FED803",
"S 	c #E1A206",
"T 	c #C26201",
"U 	c #C55C01",
"V 	c #E46E00",
"W 	c #FC7B04",
"X 	c #FB7B01",
"Y 	c #FD8E02",
"Z 	c #FD8D01",
"` 	c #FD8C00",
" .	c #FE9202",
"..	c #FBA300",
"+.	c #FDBA02",
"@.	c #B25C1D",
"#.	c #9A6518",
"$.	c #F1C22E",
"%.	c #FCCE11",
"&.	c #FDD507",
"*.	c #FDD903",
"=.	c #FEDC08",
"-.	c #FDDC0D",
";.	c #FDD50A",
">.	c #FECE11",
",.	c #C8850B",
"'.	c #C07204",
").	c #A44C06",
"!.	c #D29404",
"~.	c #FEDA0C",
"{.	c #FDDF02",
"].	c #FED602",
"^.	c #FED705",
"/.	c #D69106",
"(.	c #C05E03",
"_.	c #CF6402",
":.	c #EC7703",
"<.	c #FD8001",
"[.	c #FC7E01",
"}.	c #FC8A02",
"|.	c #FE9602",
"1.	c #FD9501",
"2.	c #FE9000",
"3.	c #FE9201",
"4.	c #FE9800",
"5.	c #FDA503",
"6.	c #A5492B",
"7.	c #794013",
"8.	c #D1A01C",
"9.	c #FDCD1A",
"0.	c #FBCE18",
"a.	c #FED710",
"b.	c #FEDC07",
"c.	c #FDDC0E",
"d.	c #FCD615",
"e.	c #FCD00E",
"f.	c #FCC517",
"g.	c #CC8109",
"h.	c #B26006",
"i.	c #9C4603",
"j.	c #DD9B08",
"k.	c #FED506",
"l.	c #FDE201",
"m.	c #FDDA03",
"n.	c #FED806",
"o.	c #D28D03",
"p.	c #CE6906",
"q.	c #F37704",
"r.	c #FB8104",
"s.	c #FD8601",
"t.	c #FE8401",
"u.	c #FF9501",
"v.	c #FE9C01",
"w.	c #FF9901",
"x.	c #FF9900",
"y.	c #FF9C00",
"z.	c #FE9F01",
"A.	c #9F3F2C",
"B.	c #783F16",
"C.	c #865205",
"D.	c #D0A01C",
"E.	c #EFC31B",
"F.	c #FDD51A",
"G.	c #FCDB19",
"H.	c #FEDB1C",
"I.	c #FCD01D",
"J.	c #FBC817",
"K.	c #ECB118",
"L.	c #BD7406",
"M.	c #954701",
"N.	c #9E4F03",
"O.	c #EBAB07",
"P.	c #FEE202",
"Q.	c #FCDE02",
"R.	c #FDDC04",
"S.	c #D49004",
"T.	c #CA6202",
"U.	c #F47505",
"V.	c #FD8203",
"W.	c #FD8900",
"X.	c #FE8901",
"Y.	c #FE8700",
"Z.	c #FE9D02",
"`.	c #FEA201",
" +	c #FEA701",
".+	c #FEA500",
"++	c #963821",
"@+	c #683709",
"#+	c #612E07",
"$+	c #673502",
"%+	c #986814",
"&+	c #D1A01B",
"*+	c #F3C819",
"=+	c #FBCF24",
"-+	c #EEB921",
";+	c #E0A412",
">+	c #C68206",
",+	c #9A5502",
"'+	c #844001",
")+	c #B06106",
"!+	c #F9B406",
"~+	c #FECA01",
"{+	c #FEDA02",
"]+	c #FEE103",
"^+	c #FEE002",
"/+	c #D89C0A",
"(+	c #B55502",
"_+	c #E86F06",
":+	c #FE8202",
"<+	c #FE8B01",
"[+	c #FD8C01",
"}+	c #FF8A00",
"|+	c #FE9C03",
"1+	c #FEA800",
"2+	c #FEB101",
"3+	c #FEAF01",
"4+	c #923422",
"5+	c #572D0B",
"6+	c #582C0A",
"7+	c #643504",
"8+	c #844D06",
"9+	c #965703",
"0+	c #955204",
"a+	c #9E630F",
"b+	c #A66505",
"c+	c #BD7A06",
"d+	c #AA6606",
"e+	c #804202",
"f+	c #924B04",
"g+	c #C67405",
"h+	c #FCB605",
"i+	c #FDC502",
"j+	c #FDD203",
"k+	c #FCDD06",
"l+	c #FBDF03",
"m+	c #E4B011",
"n+	c #B05403",
"o+	c #E36F04",
"p+	c #FE8402",
"q+	c #FD8E01",
"r+	c #FE8D01",
"s+	c #FD9801",
"t+	c #FDA801",
"u+	c #FEB202",
"v+	c #FEB803",
"w+	c #FDBD03",
"x+	c #E32030",
"y+	c #E41F31",
"z+	c #E31F2F",
"A+	c #E4202F",
"B+	c #E6232F",
"C+	c #B7391E",
"D+	c #7E3C01",
"E+	c #934E03",
"F+	c #B9740A",
"G+	c #B37306",
"H+	c #854802",
"I+	c #AA4017",
"J+	c #E5242F",
"K+	c #E82B31",
"L+	c #EB3B2E",
"M+	c #EB3D2F",
"N+	c #EB442F",
"O+	c #F3AF1F",
"P+	c #F3AC22",
"Q+	c #E93B2D",
"R+	c #E6242F",
"S+	c #EA2930",
"T+	c #EB2E2F",
"U+	c #EB302F",
"V+	c #EB2F2F",
"W+	c #EB322E",
"X+	c #EA362F",
"Y+	c #EB392F",
"Z+	c #EB3B2F",
"`+	c #F8A616",
" @	c #A0231E",
".@	c #D71F2D",
"+@	c #EA1E31",
"@@	c #E91E31",
"#@	c #E91E32",
"$@	c #D62B2A",
"%@	c #935208",
"&@	c #AD6A08",
"*@	c #B26F03",
"=@	c #915102",
"-@	c #854905",
";@	c #D34726",
">@	c #E91F32",
",@	c #E91E30",
"'@	c #E91F31",
")@	c #ED552E",
"!@	c #FAB712",
"~@	c #FACA02",
"{@	c #F5A222",
"]@	c #DD4628",
"^@	c #E75426",
"/@	c #F26023",
"(@	c #ED442C",
"_@	c #EA1E30",
":@	c #EE5329",
"<@	c #F36D23",
"[@	c #F36F24",
"}@	c #EF582B",
"|@	c #EA1E32",
"1@	c #F8A219",
"2@	c #872419",
"3@	c #C52028",
"4@	c #E52230",
"5@	c #E2252E",
"6@	c #E82031",
"7@	c #B76110",
"8@	c #A86304",
"9@	c #925301",
"0@	c #7C3C05",
"a@	c #BE8014",
"b@	c #E83030",
"c@	c #DE2B2A",
"d@	c #E91D34",
"e@	c #EF7028",
"f@	c #FEC106",
"g@	c #FAC001",
"h@	c #F19321",
"i@	c #EA3930",
"j@	c #E59913",
"k@	c #EB7D03",
"l@	c #FE8904",
"m@	c #F16126",
"n@	c #E91F30",
"o@	c #F4781E",
"p@	c #FE9B05",
"q@	c #F99213",
"r@	c #F99E18",
"s@	c #862719",
"t@	c #C52228",
"u@	c #E5252F",
"v@	c #CF3B25",
"w@	c #C94A1F",
"x@	c #925302",
"y@	c #793C02",
"z@	c #A9660F",
"A@	c #E8891F",
"B@	c #EA1E33",
"C@	c #D04D23",
"D@	c #EF6B27",
"E@	c #FEBE01",
"F@	c #FAB404",
"G@	c #EF8220",
"H@	c #EF782B",
"I@	c #FBC50D",
"J@	c #EE8803",
"K@	c #FD8802",
"L@	c #F26025",
"M@	c #F6771E",
"N@	c #FF9C01",
"O@	c #FEA102",
"P@	c #FBA005",
"Q@	c #EC412E",
"R@	c #F79819",
"S@	c #903223",
"T@	c #C72229",
"U@	c #E3252E",
"V@	c #B44F15",
"W@	c #D92C2C",
"X@	c #743E05",
"Y@	c #7E4004",
"Z@	c #CB8212",
"`@	c #EB6527",
" #	c #E9482D",
".#	c #E6811B",
"+#	c #F06828",
"@#	c #FFB603",
"##	c #F4A307",
"$#	c #E9990F",
"%#	c #FAC409",
"&#	c #FED207",
"*#	c #F7AE08",
"=#	c #F68703",
"-#	c #F15F25",
";#	c #F6761E",
">#	c #FF9B00",
",#	c #FF9F02",
"'#	c #FBA103",
")#	c #FA9E09",
"!#	c #FCA704",
"~#	c #9C4131",
"{#	c #C8252A",
"]#	c #E4242E",
"^#	c #924E0B",
"/#	c #E1262D",
"(#	c #E81F31",
"_#	c #E81E30",
":#	c #802A11",
"<#	c #975506",
"[#	c #DD8908",
"}#	c #EA372F",
"|#	c #F28024",
"1#	c #F6A01C",
"2#	c #EF6529",
"3#	c #FBA701",
"4#	c #E58A02",
"5#	c #DB8104",
"6#	c #FCBE0A",
"7#	c #FED201",
"8#	c #FECD09",
"9#	c #ED9804",
"0#	c #E85425",
"a#	c #FE9900",
"b#	c #FFA101",
"c#	c #FEA400",
"d#	c #FDA701",
"e#	c #9B3F2E",
"f#	c #E2212E",
"g#	c #6D340D",
"h#	c #BD2828",
"i#	c #B62B20",
"j#	c #AF6406",
"k#	c #E87D1C",
"l#	c #EA2431",
"m#	c #F6A712",
"n#	c #F5A51A",
"o#	c #F6A001",
"p#	c #DD8002",
"q#	c #D47702",
"r#	c #F3AA06",
"s#	c #FEC901",
"t#	c #FED407",
"u#	c #FCC50B",
"v#	c #EB6A24",
"w#	c #F6781E",
"x#	c #FF9700",
"y#	c #FF9A01",
"z#	c #FF9E01",
"A#	c #FFA201",
"B#	c #FEA402",
"C#	c #94372A",
"D#	c #C62129",
"E#	c #E21E2E",
"F#	c #512511",
"G#	c #87261F",
"H#	c #E81E31",
"I#	c #DC2A2C",
"J#	c #CA760B",
"K#	c #E95E27",
"L#	c #EE5A2C",
"M#	c #FCC505",
"N#	c #F8A91A",
"O#	c #EF6C28",
"P#	c #F9AE05",
"Q#	c #DF8A02",
"R#	c #DA8103",
"S#	c #E28E02",
"T#	c #FEC004",
"U#	c #FDD004",
"V#	c #FDD204",
"W#	c #F28A26",
"X#	c #F5791E",
"Y#	c #FE9C00",
"Z#	c #FFA301",
"`#	c #8D2F27",
" $	c #C42029",
".$	c #E11F2F",
"+$	c #482314",
"@$	c #4F2517",
"#$	c #DC1F2E",
"$$	c #DD7B17",
"%$	c #E93130",
"&$	c #F49B21",
"*$	c #FDD101",
"=$	c #F8B718",
"-$	c #F07C27",
";$	c #FECD07",
">$	c #F4B806",
",$	c #E69803",
"'$	c #DB8402",
")$	c #F7AF08",
"!$	c #FDD001",
"~$	c #F28E24",
"{$	c #F57B1F",
"]$	c #FD9900",
"^$	c #FFA000",
"/$	c #8D2C25",
"($	c #C51F29",
"_$	c #E11E2F",
":$	c #422213",
"<$	c #432115",
"[$	c #B62127",
"}$	c #E84C2A",
"|$	c #E92632",
"1$	c #FBC811",
"2$	c #FED902",
"3$	c #F8BC18",
"4$	c #F18528",
"5$	c #FEDF03",
"6$	c #FFDE06",
"7$	c #FCD108",
"8$	c #EDB004",
"9$	c #EEA505",
"0$	c #FEC103",
"a$	c #FEC900",
"b$	c #F38F24",
"c$	c #F4871D",
"d$	c #FE9D01",
"e$	c #FF9E00",
"f$	c #91332E",
"g$	c #C6222A",
"h$	c #482520",
"i$	c #3E2116",
"j$	c #7C231A",
"k$	c #ED632B",
"l$	c #FBCD05",
"m$	c #FED402",
"n$	c #F7B819",
"o$	c #F08727",
"p$	c #FEE401",
"q$	c #FDE400",
"r$	c #FDE302",
"s$	c #FED905",
"t$	c #F6C004",
"u$	c #FDC405",
"v$	c #FDC801",
"w$	c #F18B24",
"x$	c #F5A01D",
"y$	c #FCB203",
"z$	c #FE9E03",
"A$	c #FE9B00",
"B$	c #FE9D00",
"C$	c #FD9F00",
"D$	c #903433",
"E$	c #C5212B",
"F$	c #E22534",
"G$	c #745057",
"H$	c #4C2D28",
"I$	c #45230F",
"J$	c #D81F2D",
"K$	c #DD6E22",
"L$	c #DA9D03",
"M$	c #F9C406",
"N$	c #F8B81B",
"O$	c #FFE600",
"P$	c #FFE900",
"Q$	c #FEE902",
"R$	c #FEE201",
"S$	c #FEDC04",
"T$	c #FED204",
"U$	c #FED103",
"V$	c #F18D25",
"W$	c #F6B11E",
"X$	c #FED206",
"Y$	c #FEB903",
"Z$	c #FDA700",
"`$	c #FCA001",
" %	c #B3343A",
".%	c #DC2131",
"+%	c #E82132",
"@%	c #AF4451",
"#%	c #643430",
"$%	c #42230E",
"%%	c #B02224",
"&%	c #E72430",
"*%	c #BA7511",
"=%	c #CC8D0D",
"-%	c #E09A11",
";%	c #EF8726",
">%	c #E81E32",
",%	c #ED602D",
"'%	c #F9CD15",
")%	c #FBEA08",
"!%	c #FEED03",
"~%	c #FEE900",
"{%	c #FDE200",
"]%	c #FCDC06",
"^%	c #F9BF14",
"/%	c #ED682B",
"(%	c #EA1F30",
"_%	c #F08928",
":%	c #FBCF12",
"<%	c #FCD202",
"[%	c #FFC302",
"}%	c #FCB102",
"|%	c #FC9D01",
"1%	c #E12837",
"2%	c #DF283A",
"3%	c #DE2837",
"4%	c #DD2533",
"5%	c #BA202A",
"6%	c #752516",
"7%	c #DE222D",
"8%	c #C54125",
"9%	c #AA7A21",
"0%	c #C38A1A",
"a%	c #E5402F",
"b%	c #E9452E",
"c%	c #EB542E",
"d%	c #EB592E",
"e%	c #EC562D",
"f%	c #EC592F",
"g%	c #F6BC1F",
"h%	c #FFED07",
"i%	c #FFEC02",
"j%	c #FEE802",
"k%	c #F4B31D",
"l%	c #ED5B2E",
"m%	c #EB542F",
"n%	c #EC572D",
"o%	c #EC5D2F",
"p%	c #ED5D2E",
"q%	c #ED5E2F",
"r%	c #F9C618",
"s%	c #FDD902",
"t%	c #FECD04",
"u%	c #FEBB06",
"v%	c #9B4D54",
"w%	c #765360",
"x%	c #714E56",
"y%	c #532F2C",
"z%	c #422012",
"A%	c #42220F",
"B%	c #44240E",
"C%	c #512E0A",
"D%	c #7A511B",
"E%	c #A57521",
"F%	c #CC9921",
"G%	c #D49B1C",
"H%	c #E0A515",
"I%	c #EBB906",
"J%	c #FED601",
"K%	c #FEDB03",
"L%	c #FEE806",
"M%	c #FFED05",
"N%	c #FFEC06",
"O%	c #FEE607",
"P%	c #FEE105",
"Q%	c #FBD604",
"R%	c #F8CD02",
"S%	c #FEDF05",
"T%	c #FDE805",
"U%	c #FCE802",
"V%	c #FEE501",
"W%	c #FDE401",
"X%	c #FED502",
"Y%	c #98474E",
"Z%	c #78545D",
"`%	c #633F43",
" &	c #472319",
".&	c #462517",
"+&	c #472616",
"@&	c #422111",
"#&	c #452210",
"$&	c #50290C",
"%&	c #855821",
"&&	c #BD8D38",
"*&	c #C08D2C",
"=&	c #B4771A",
"-&	c #CB8B0D",
";&	c #FACE05",
">&	c #FEDB02",
",&	c #FED101",
"'&	c #FCCF00",
")&	c #FEE804",
"!&	c #FEEB06",
"~&	c #FEEB08",
"{&	c #FCEA08",
"]&	c #FEE308",
"^&	c #FCD402",
"/&	c #FDD701",
"(&	c #FDE304",
"_&	c #FEED06",
":&	c #FEEC03",
"<&	c #FFEA01",
"[&	c #FEE801",
"}&	c #FEE101",
"|&	c #97444C",
"1&	c #744F56",
"2&	c #542F2C",
"3&	c #482215",
"4&	c #4E2D21",
"5&	c #5B392E",
"6&	c #4C2A21",
"7&	c #422216",
"8&	c #462219",
"9&	c #6F4341",
"0&	c #7F4C4C",
"a&	c #824B42",
"b&	c #884931",
"c&	c #BC7B22",
"d&	c #F2B809",
"e&	c #FDD708",
"f&	c #FFD901",
"g&	c #FECF01",
"h&	c #FDE904",
"i&	c #FEEC09",
"j&	c #FDEE0A",
"k&	c #FFEB08",
"l&	c #FFE203",
"m&	c #FEDE02",
"n&	c #FDDF01",
"o&	c #FCE503",
"p&	c #FDEF05",
"q&	c #FFF005",
"r&	c #FFEF04",
"s&	c #FFEA03",
"t&	c #99444C",
"u&	c #6A4446",
"v&	c #4C271E",
"w&	c #492418",
"x&	c #57342C",
"y&	c #633E39",
"z&	c #57332F",
"A&	c #4A2824",
"B&	c #472620",
"C&	c #623D37",
"D&	c #764948",
"E&	c #7D4848",
"F&	c #7A442D",
"G&	c #A46D1C",
"H&	c #EDB11B",
"I&	c #F6C009",
"J&	c #FED503",
"K&	c #FDD604",
"L&	c #FECF03",
"M&	c #FDE604",
"N&	c #FEED09",
"O&	c #FFEE09",
"P&	c #FEED07",
"Q&	c #FDEB04",
"R&	c #FEEA04",
"S&	c #FFE805",
"T&	c #FDE804",
"U&	c #FCEC04",
"V&	c #FEEF08",
"W&	c #FFF10B",
"X&	c #FFF008",
"Y&	c #943E41",
"Z&	c #5F3C3B",
"`&	c #4D2A24",
" *	c #512F26",
".*	c #5E3836",
"+*	c #663D3C",
"@*	c #542F2D",
"#*	c #512F2B",
"$*	c #653F3C",
"%*	c #724444",
"&*	c #7D4641",
"**	c #7D4536",
"=*	c #85561C",
"-*	c #E4AA24",
";*	c #F3B514",
">*	c #F5BC03",
",*	c #FED202",
"'*	c #FFD302",
")*	c #FBD201",
"!*	c #FCDE03",
"~*	c #FEEB0B",
"{*	c #FFED0C",
"]*	c #FFED08",
"^*	c #FEEC04",
"/*	c #FEEC05",
"(*	c #FEEC08",
"_*	c #FBE809",
":*	c #F9E105",
"<*	c #F9DF05",
"[*	c #FDEA06",
"}*	c #8D3333",
"|*	c #583533",
"1*	c #55322E",
"2*	c #57352F",
"3*	c #623E3E",
"4*	c #694142",
"5*	c #593434",
"6*	c #4F2D2B",
"7*	c #50302D",
"8*	c #623E3D",
"9*	c #6D4142",
"0*	c #744539",
"a*	c #764839",
"b*	c #653B22",
"c*	c #C28E21",
"d*	c #F2B81E",
"e*	c #DD9F0C",
"f*	c #F2B804",
"g*	c #FDD102",
"h*	c #FDD501",
"i*	c #FBDA01",
"j*	c #FEE50C",
"k*	c #FFEB0D",
"l*	c #FFEC0A",
"m*	c #FCE604",
"n*	c #FAD900",
"o*	c #FCD400",
"p*	c #FCCD01",
"q*	c #FBCA02",
"r*	c #FCCF02",
"s*	c #FEE001",
"t*	c #8B302E",
"u*	c #593632",
"v*	c #583531",
"w*	c #53312D",
"x*	c #5A3839",
"y*	c #643D3F",
"z*	c #502D2E",
"A*	c #462625",
"B*	c #492A28",
"C*	c #5A3938",
"D*	c #6B4042",
"E*	c #764741",
"F*	c #7A4D42",
"G*	c #562D26",
"H*	c #A36F26",
"I*	c #E0A922",
"J*	c #E5AF24",
"K*	c #C48808",
"L*	c #F6C108",
"M*	c #FED708",
"N*	c #FDDD04",
"O*	c #FEE30D",
"P*	c #FFEC0F",
"Q*	c #FEED0C",
"R*	c #FEE705",
"S*	c #FCDB00",
"T*	c #FED801",
"U*	c #FFD101",
"V*	c #FFCD03",
"W*	c #FED604",
"X*	c #FFEA07",
"Y*	c #882C27",
"Z*	c #55352E",
"`*	c #55352F",
" =	c #543430",
".=	c #5E3C3E",
"+=	c #664144",
"@=	c #5A373A",
"#=	c #4A2B2D",
"$=	c #472B2A",
"%=	c #533334",
"&=	c #6A4247",
"*=	c #784B4B",
"==	c #71463E",
"-=	c #643A32",
";=	c #7F4B21",
">=	c #CB9624",
",=	c #EABA2B",
"'=	c #C89621",
")=	c #D09505",
"!=	c #FBD00F",
"~=	c #FEE40B",
"{=	c #FBE811",
"]=	c #FEED13",
"^=	c #FEF011",
"/=	c #FEEE0B",
"(=	c #FDE907",
"_=	c #FCE100",
":=	c #FEDE01",
"<=	c #FEDA01",
"[=	c #FCD601",
"}=	c #FCDD03",
"|=	c #FFF40E",
"1=	c #852722",
"2=	c #4E3028",
"3=	c #55372F",
"4=	c #62423D",
"5=	c #674448",
"6=	c #68434A",
"7=	c #643F49",
"8=	c #59383F",
"9=	c #513437",
"0=	c #543538",
"a=	c #6D464A",
"b=	c #744B4A",
"c=	c #6B403A",
"d=	c #64392C",
"e=	c #64331A",
"f=	c #A26E19",
"g=	c #DDA91C",
"h=	c #EEC02E",
"i=	c #B98407",
"j=	c #E6B70A",
"k=	c #FEE114",
"l=	c #FDED1B",
"m=	c #FFF118",
"n=	c #FFF215",
"o=	c #FFF110",
"p=	c #FEF00C",
"q=	c #FBE603",
"r=	c #FCE101",
"s=	c #FEE102",
"t=	c #FDE102",
"u=	c #FEF30D",
"v=	c #83251F",
"w=	c #46271F",
"x=	c #4B2D25",
"y=	c #5E3F39",
"z=	c #6E494F",
"A=	c #714B59",
"B=	c #70495A",
"C=	c #744E5A",
"D=	c #614048",
"E=	c #624147",
"F=	c #664145",
"G=	c #69403F",
"H=	c #6C413A",
"I=	c #5E301F",
"J=	c #6F370E",
"K=	c #BF8815",
"L=	c #EFBF1D",
"M=	c #EBC327",
"N=	c #E9BD11",
"O=	c #FDDD13",
"P=	c #FFEE17",
"Q=	c #FFF21B",
"R=	c #FFF318",
"S=	c #FFF414",
"T=	c #FFF411",
"U=	c #FDE602",
"V=	c #FFE501",
"W=	c #FFE804",
"  . + @ # $ % & * = - ; > , ' ) ! ~ { ] ^ / ( _ : < [ } | 1 2 3 ",
"4 5 6 7 8 9 0 a b c d e f g h i j k l m n o p q r s t u v w x y ",
"z A B C D E F G H I J K L M N O P Q R S T U V W X Y s Z `  ...+.",
"@.#.$.%.I &.*.=.-.;.>.,.'.).!.~.{.].^./.(._.:.<.[.}.|.1.2.3.4.5.",
"6.7.8.9.0.a.b.c.d.e.f.g.h.i.j.k.l.m.n.o.p.q.r.s.t.u u.v.w.x.y.z.",
"A.B.C.D.E.F.G.H.I.J.K.L.M.N.O.3 P.Q.R.S.T.U.V.W.X.Y.s Z.`. +.+.+",
"++@+#+$+%+&+*+=+-+;+>+,+'+)+!+~+{+]+^+/+(+_+:+<+[+}+[+|+1+2+2+3+",
"4+5+6+7+8+9+0+a+b+c+d+e+f+g+h+i+j+k+l+m+n+o+p+Z q+r+r+s+t+u+v+w+",
"x+y+z+A+B+C+D+E+F+G+H+I+J+K+L+M+N+O+P+Q+R+S+T+U+U+V+U+W+X+Y+Z+`+",
" @.@+@@@#@$@%@&@*@=@-@;@>@,@'@)@!@~@{@@@]@^@/@(@_@+@:@<@[@}@|@1@",
"2@3@4@5@@@6@7@8@9@0@a@b@c@@@d@e@f@g@h@i@j@k@l@m@n@@@o@p@Z.q@#@r@",
"s@t@u@v@,@_@w@x@y@z@A@B@C@@@@@D@E@F@G@H@I@J@K@L@,@@@M@N@O@P@Q@R@",
"S@T@U@V@@@@@W@X@Y@Z@`@ #.##@@@+#@###$#%#&#*#=#-#,@'@;#>#,#'#)#!#",
"~#{#]#^#/#(#_#:#<#[#}#|#1#'@|@2#3#4#5#6#7#8#9#0#@@,@M@a#N@b#c#d#",
"e#{#f#g#h#_@@@i#j#k#l#m#n#n@+@2#o#p#q#r#s#t#u#v#@@,@w#x#y#z#A#B#",
"C#D#E#F#G#H#@@I#J#K#L#M#N#+@,@O#P#Q#R#S#T#U#V#W#,@,@X#4.4.Y#z.Z#",
"`# $.$+$@$#$@@(#$$%$&$*$=$+@@@-$;$>$,$'$)$~+!$~$n@@@{$w.]$]$Y#^$",
"/$($_$:$<$[$+@,@}$|$1$2$3$+@H#4$5$6$7$8$9$0$a$b$_#@@c$d$a#a#>#e$",
"f$g$.$h$i$j$_#,@@@k$l$m$n$'@H#o$p$q$r$s$t$u$v$w$'@+@x$y$z$A$B$C$",
"D$E$F$G$H$I$J$@@@@K$L$M$N$'@@@o$O$P$Q$R$S$T$U$V$+@,@W$X$Y$Z$`$z$",
" %.%+%@%#%$%%%,@&%*%=%-%;%|@>%,%'%)%!%~%{%]%^%/%(#(%_%:%<%[%}%|%",
"1%2%3%4%5%I$6%7%8%9%0%a%b%c%d%e%f%g%h%i%j%k%l%m%n%o%p%q%r%s%t%u%",
"v%w%x%y%z%A%B%C%D%E%F%G%H%I%S$J%*$K%L%M%N%O%P%Q%R%S%T%U%V%W%5$X%",
"Y%Z%`% &.&+&@&#&$&%&&&*&=&-&;&>&,&'&>&)&!&~&{&]&^&/&(&_&:&<&[&}&",
"|&1&2&3&4&5&6&7&8&9&0&a&b&c&d&e&f&g&7#]+h&i&j&k&l&m&n&o&p&q&r&s&",
"t&u&v&w&x&y&z&A&B&C&D&E&F&G&H&I&J&K&L&/&M&N&O&P&Q&R&S&T&U&V&W&X&",
"Y&Z&`& *.*+*.*@*#*$*%*&***=*-*;*>*,*'*)*!*~*{*]*^*/*(*{&_*:*<*[*",
"}*|*1*2*3*4*5*6*7*8*9*0*a*b*c*d*e*f*g*h*i*j*k*l*N%m*n*o*p*q*r*s*",
"t*u*v*w*x*y*z*A*B*C*D*E*F*G*H*I*J*K*L*M*N*O*P*Q*]*R*S*T*U*V*W*X*",
"Y*Z*`* =.=+=@=#=$=%=&=*===-=;=>=,='=)=!=~={=]=^=/=(=_=:=<=[=}=|=",
"1=2=3=4=5=6=7=8=9=0=a=b=c=d=e=f=g=h=i=j=k=l=m=n=o=p=q=r=s=:=t=u=",
"v=w=x=y=z=A=B=C=D=E=F=G=H=d=I=J=K=L=M=N=O=P=Q=R=S=T=j&U=V%V=W=u="};
